# xmcd
#
# Track frame offsets: 
#        150
#        5295
#        26415
#        43252
#        62862
#        81565
#        103597
#        123930
#        143805
#        164320
#        185300
#        207622
#        226875
#        249735
#        266670
#        284670
#        305730
#        321415
#        329455
#        355535
#
# Disc length: 4770 seconds
#
# Revision: 0
# Processed by: cddbd v1.5.2PL0 Copyright (c) Steve Scherf et al.
# Submitted via: ExactAudioCopy v0.95b4
#
DISCID=3012a014
DTITLE=Timbaland - Tim's Bio: Life from da Bassment
DYEAR=1998
DGENRE=Hip-Hop
TTITLE0=Intro
TTITLE1=I Get It On (featuring Bassey)
TTITLE2=To My (featuring Nas and Mad Skillz)
TTITLE3=Here We Come (featuring Magoo and Missy Elliott)
TTITLE4=Wit' Yo' Bad Self (featuring Mad Skillz)
TTITLE5=Lobster and Scrimp (featuring Jay-Z)
TTITLE6=What Cha Know About This (featuring Mocha and Baby Blue)
TTITLE7=Can't Nobody (featuring 1Life2Live)
TTITLE8=What Cha' Talkin' About (featuring Magoo, Static, and Lil' Man
TTITLE8=)
TTITLE9=Put 'Em On (featuring Yoshamine and Static)
TTITLE10=Fat Rabbit (featuring Ludacris)
TTITLE11=Who Am I (featuring Twista)
TTITLE12=Talking on the Phone (featuring Kelly Price, Missy Elliott, a
TTITLE12=nd Lil' Man)
TTITLE13=Keep It Real (featuring Ginuwine)
TTITLE14=John Blaze (featuring Aaliyah and Missy Elliott)
TTITLE15=Birthday (featuring Playa)
TTITLE16=3:30 in the Morning (featuring Virginia Williams)
TTITLE17=Outro
TTITLE18=Bringin' It
TTITLE19=Data
EXTD=
EXTT0=
EXTT1=
EXTT2=
EXTT3=
EXTT4=
EXTT5=
EXTT6=
EXTT7=
EXTT8=
EXTT9=
EXTT10=
EXTT11=
EXTT12=
EXTT13=
EXTT14=
EXTT15=
EXTT16=
EXTT17=
EXTT18=
EXTT19=
PLAYORDER=
